<svg height="366.305457" viewBox="0 0 245.59 329.45" width="272.996206" xmlns="http://www.w3.org/2000/svg"><path d="m59.87 66.02 3.66 3.99-1.49 5.1-3.58-3.92 1.42-5.18z" fill="#caa946"/><path d="m156.69 26.84c0-2.14 1.79-3.92 3.96-3.92s3.96 1.77 3.96 3.92-1.79 3.92-3.96 3.92-3.96-1.77-3.96-3.92zm-33.96-2.37c-2.84 0-5.23-2.29-5.23-5.18s2.31-5.18 5.23-5.18 5.23 2.29 5.23 5.18-2.39 5.18-5.23 5.18zm-37.92 6.29c-2.16 0-3.96-1.77-3.96-3.92s1.79-3.92 3.96-3.92 3.96 1.77 3.96 3.92-1.79 3.92-3.96 3.92zm118.09-11.91c-6.94 0-8.88 8.58-8.88 8.58s-2.09-3.62-6.42-3.62c-4.93 0-7.84 3.33-7.84 7.62s4.03 6.43 4.85 7.32c2.31 2.81-.15 4.21-2.31 3.18-1.49-.44-15.97-4.21-17.99-4.21-3.43-.22-2.69-2.51-.67-2.51.9.07 1.64.15 2.24.15 3.66 0 5.97-2.66 5.97-5.25 0-5.47-4.78-6.21-4.78-6.21s1.12-1.4 1.12-2.88c0-3.33-2.69-6.43-6.42-6.43-6.49 0-6.27 6.8-6.27 6.8s-.9-.22-1.19-.22c-1.79 0-5.9 1.77-5.9 5.84 0 3.47 2.99 5.4 4.48 5.62 2.09.67 2.84 2.66 0 2.96-1.27-.22-20.83-1.7-22.39-1.7-2.91 0-3.58-4.73 1.04-4.73s8.73-3.4 8.73-8.35c.15-8.43-8.66-8.95-8.66-8.95s.6-1.85.6-2.96c0-5.4-5.15-8.87-9.55-8.87s-9.55 3.47-9.55 8.87c0 1.11.6 2.96.6 2.96s-8.81.52-8.66 8.95c0 4.95 4.25 8.35 8.73 8.35 4.63-.07 3.96 4.73 1.04 4.73-1.49 0-21.12 1.55-22.39 1.7-2.84-.3-2.09-2.22 0-2.96 1.49-.3 4.48-2.22 4.48-5.62 0-4.07-4.11-5.84-5.9-5.84-.3 0-1.19.22-1.19.22s.22-6.8-6.27-6.8c-3.73 0-6.42 3.11-6.42 6.43 0 1.48 1.12 2.88 1.12 2.88s-4.78.67-4.78 6.21c0 2.59 2.31 5.25 5.97 5.25.52 0 1.27-.07 2.16-.15 2.02 0 2.76 2.22-.67 2.51-2.02 0-16.5 3.77-17.99 4.21-2.16 1.11-4.63-.37-2.31-3.18.9-.89 4.93-2.96 4.93-7.32s-2.91-7.62-7.84-7.62c-4.33 0-6.42 3.62-6.42 3.62s-1.94-8.58-8.88-8.58c-5.67 0-8.73 1.63-8.73 1.63s3.36 5.47 7.24 11.68c.75-.52 1.64-.81 2.61-.81 2.46 0 4.48 2 4.48 4.36 0 1.7-.97 3.18-2.39 3.92 3.36 5.32 6.2 9.91 6.49 10.42 2.46 2.96 5.23 2.14 7.61 1.7 16.05-6.36 47.03-9.69 62.85-9.24 15.9-.37 46.8 2.96 62.85 9.24 2.39.44 5.08 1.26 7.61-1.7.37-.59 3.21-5.1 6.49-10.42-1.42-.74-2.39-2.22-2.39-3.92 0-2.44 2.02-4.36 4.48-4.36.97 0 1.87.3 2.61.81 3.88-6.21 7.24-11.68 7.24-11.68s-2.91-1.63-8.58-1.63z" fill="#caa946"/><path d="m94.08 63.44c0 2.07-1.72 3.77-3.81 3.77s-3.81-1.7-3.81-3.77 1.72-3.77 3.81-3.77 3.81 1.7 3.81 3.77z" fill="#caa946"/><path d="m122.73 47.91c17.69 0 47.7 3.4 64.79 10.06-.67 2.96-1.04 4.58-1.72 7.02-14.63-6.21-45.91-9.98-63.08-9.98s-48.45 3.77-63.08 9.98c-.6-2.44-1.04-4.07-1.72-7.02 17.09-6.65 47.1-10.06 64.79-10.06z" fill="#caa946"/><path d="m122.73 66.69c15.15 0 45.61 3.47 60.46 9.54-.45 2-1.27 5.54-1.79 7.32-10.97-4.95-42.03-9.83-58.67-9.83s-47.62 4.95-58.6 9.83c-.52-1.77-1.34-5.32-1.79-7.32 14.78-6.14 45.24-9.54 60.39-9.54z" fill="#caa946"/><path d="m151.39 63.44c0 2.07 1.72 3.77 3.81 3.77s3.81-1.7 3.81-3.77-1.72-3.77-3.81-3.77-3.81 1.7-3.81 3.77z" fill="#caa946"/><path d="m122.71 56.19 5.23 4.73-5.23 4.58-5.23-4.58z" fill="#caa946"/><path d="m185.5 66.18-3.58 3.99 1.42 5.1 3.58-3.92-1.42-5.18z" fill="#caa946"/><path d="m179.08 98.48c-.45-5.47-5.08-9.83-10.67-9.83-4.25 0-7.84 2.51-9.63 6.06-3.88-.67-13.44-1.85-20.01-2.44l-6.12-.96c0-.07-.07-.15-.07-.3-.07-.15-.15-.3-.22-.44-.07-.15-.15-.3-.15-.37-.07-.15-.15-.3-.22-.44-.07-.15-.15-.22-.22-.37s-.15-.3-.3-.44c-.07-.15-.15-.22-.3-.37-.07-.15-.22-.22-.3-.37-.15-.22-.37-.44-.6-.67-.07-.07-.22-.15-.3-.3-.15-.15-.3-.22-.37-.37-.07-.07-.22-.15-.3-.3-.15-.15-.3-.22-.45-.3-.07-.07-.22-.15-.3-.22-.15-.07-.37-.22-.52-.3-.07-.07-.22-.15-.3-.15-.3-.15-.52-.3-.82-.37-.07 0-.15-.07-.15-.07-.22-.07-.52-.22-.75-.3-.07 0-.22-.07-.3-.07-.22-.07-.45-.15-.6-.15s-.22-.07-.37-.07c-.22-.07-.45-.07-.67-.07-.07 0-.22 0-.3-.07-.37 0-.67-.07-.97-.07-.37 0-.67 0-.97.07-.07 0-.22 0-.3.07-.22 0-.45.07-.67.07-.15 0-.22.07-.37.07-.22.07-.45.07-.6.15-.07 0-.22.07-.3.07-.22.07-.45.15-.75.3-.07 0-.15.07-.15.07-.3.15-.52.22-.82.37-.07.07-.22.15-.3.15-.15.07-.37.22-.52.3-.07.07-.22.15-.37.22s-.3.22-.45.3c-.07.07-.22.15-.3.22-.15.15-.3.22-.45.37-.07.07-.22.15-.3.3-.22.22-.37.44-.6.67-.07.15-.15.22-.3.37-.07.15-.22.22-.3.37-.07.15-.15.3-.3.37-.07.15-.15.22-.22.37s-.15.3-.22.44c-.07.15-.15.3-.22.37-.07.15-.15.3-.22.44 0 .07-.07.15-.07.3l-6.12.96c-6.64.59-16.12 1.77-20.01 2.44-1.72-3.62-5.37-6.06-9.63-6.06-5.6 0-10.15 4.36-10.6 9.83l-66.37 18.04.82 6.14c5.9 43.55 22.84 86.43 50.46 127.39 25.16 37.41 52.77 63.44 66.96 75.63l4.55 3.92 4.55-3.92c14.18-12.2 41.73-38.22 66.96-75.63 27.62-40.96 44.56-83.84 50.46-127.39l.82-6.14-66.51-17.89z" fill="#caa946"/><path d="m122.72 320.36c34.86-30.02 101.89-101.73 114.96-198.66-11.5-3.11-60.31-16.41-60.31-16.41-1.34 2.07-3.36 3.62-5.82 4.36v27.95c4.33 1.33 7.54 5.47 7.54 10.28s-3.21 8.95-7.54 10.28v10.13c0 3.84-1.64 17.52-3.73 22.48 0 0-.07.15-.15.37 1.94 1.92 3.14 4.66 3.14 7.62 0 5.84-4.7 10.65-10.53 10.72l-.15.52c-3.21 7.76-18.06 26.54-27.1 31.79.07.37.15.74.22 1.11 0 .15 0 .22.07.37 0 .15 0 .3.07.37 0 .3.07.59.07.89 0 5.91-4.78 10.72-10.67 10.72v65.14h-.07z" fill="#00004c"/><path d="m122.73 255.37c-5.9 0-10.67-4.81-10.67-10.72 0-.3 0-.59.07-.89v-.37c0-.15.07-.22.07-.37.07-.37.15-.74.22-1.11-9.03-5.25-23.89-24.03-27.1-31.79l-.22-.52c-5.82-.07-10.53-4.88-10.53-10.72 0-2.96 1.19-5.69 3.14-7.62-.07-.22-.15-.37-.15-.37-2.09-5.03-3.73-18.71-3.73-22.48v-10.13c-4.4-1.33-7.54-5.47-7.54-10.28s3.21-8.95 7.54-10.28v-27.95c-2.39-.74-4.4-2.29-5.82-4.36 0 0-48.89 13.31-60.31 16.41 13.06 96.78 80.1 168.5 115.03 198.52v-64.99z" fill="#d70f27"/><g fill="#fff"><path d="m116.3 236c1.79-1.33 4.03-2.14 6.42-2.14s4.55.81 6.34 2.14c7.09-3.62 21.72-21.66 24.56-28.61-2.54-2-4.18-5.03-4.18-8.5 0-5.91 4.78-10.72 10.67-10.72.45 0 .82 0 1.19.07 1.57-3.77 3.21-16.41 3.21-19.81v-10.35c-4.03-1.55-6.87-5.47-6.87-9.98s2.84-8.43 6.87-10.06v-28.46c-3.28-1.33-5.82-4.21-6.57-7.69-4.7-.89-21.72-2.81-25.31-2.81v.07-.07c-1.49 4.07-5.45 7.02-10 7.02s-8.51-2.88-10-7.02v.07-.07c-3.58 0-20.6 1.92-25.3 2.81-.82 3.55-3.28 6.43-6.57 7.69v28.39c3.96 1.55 6.87 5.47 6.87 10.06s-2.84 8.43-6.87 9.98v10.35c0 3.4 1.64 16.04 3.21 19.81.37-.07.82-.07 1.19-.07 5.9 0 10.67 4.81 10.67 10.72 0 3.47-1.64 6.58-4.18 8.5 2.91 7.02 17.54 25.06 24.63 28.69z"/><path d="m83.23 99.44c0 3.47-2.84 6.28-6.27 6.28s-6.27-2.81-6.27-6.28 2.76-6.28 6.27-6.28 6.27 2.81 6.27 6.28z"/><path d="m83.23 147.94c0 3.47-2.84 6.28-6.27 6.28s-6.27-2.81-6.27-6.28 2.76-6.28 6.27-6.28 6.27 2.81 6.27 6.28z"/><path d="m91.44 198.81c0 3.47-2.76 6.28-6.27 6.28s-6.27-2.81-6.27-6.28 2.76-6.28 6.27-6.28 6.27 2.81 6.27 6.28z"/><path d="m162.13 99.44c0 3.47 2.76 6.28 6.27 6.28s6.27-2.81 6.27-6.28-2.76-6.28-6.27-6.28-6.27 2.81-6.27 6.28z"/><path d="m116.45 95.16c0 3.47 2.76 6.28 6.27 6.28s6.27-2.81 6.27-6.28-2.84-6.28-6.27-6.28-6.27 2.81-6.27 6.28z"/><path d="m116.45 244.58c0 3.47 2.76 6.28 6.27 6.28s6.27-2.81 6.27-6.28-2.84-6.28-6.27-6.28-6.27 2.81-6.27 6.28z"/><path d="m162.13 147.94c0 3.47 2.76 6.28 6.27 6.28s6.27-2.81 6.27-6.28-2.76-6.28-6.27-6.28-6.27 2.81-6.27 6.28z"/><path d="m153.91 198.81c0 3.47 2.76 6.28 6.27 6.28s6.27-2.81 6.27-6.28-2.84-6.28-6.27-6.28-6.27 2.81-6.27 6.28z"/><path d="m54.18 159.55v4.66h-9.03c-7.91 0-14.78-7.76-14.78-16.12s6.57-15.75 14.78-15.75h9.03v4.44h-9.03c-5.37 0-10.23 5.55-10.23 11.24s4.78 11.53 10.23 11.53c4.48.07 9.03 0 9.03 0z"/><path d="m202.81 136.12c-4.78 0-8.21 3.47-8.21 8.5v8.43h16.12v-8.43c0-4.95-3.06-8.5-7.91-8.5zm12.24 7.91v20.18h-4.33v-6.73h-16.12v6.73h-4.18v-20.18c0-6.14 5.23-12.42 12.39-12.42 7.61 0 12.24 6.28 12.24 12.42z"/><path d="m123.02 272.75c-6.2 0-11.27 5.1-11.27 11.31s5.08 11.31 11.27 11.31 11.27-5.1 11.27-11.31c-.07-6.28-5.08-11.31-11.27-11.31zm0-4.81c8.81 0 15.97 7.25 15.97 16.12s-7.17 16.12-15.97 16.12-15.97-7.25-15.97-16.12c-.07-8.87 7.17-16.12 15.97-16.12z"/></g><path d="m122.78 155.41.67-.44v-5.47c0-2.07-1.27-3.33-1.27-3.33s-3.51-3.84-4.33-4.81c-.9-.89-1.64-1.26-2.84-1.26v-.81c0-.67-.15-.89-.9-.89h-3.43c-.52.07-.9.07-1.27-.96-.37-.81-1.42-.67-2.02-.07-.97.74-7.84 8.5-8.06 8.72-.52.52-.52 1.48 0 2.22.07.15 1.34 2.29 1.34 2.29s2.39-1.85 2.54-2c.75-.52 2.16.37 2.16.37l-3.73 2.96s.15.96.97.96h3.43l1.19 2.44h2.24v-4.58h1.34v-4.44h1.87v6.36h-1.34v4.66h-5.23l-5.08 4.88h4.33l-1.94 4.07h5.52l-.07 3.77 4.11-4.81 4.4 3.33v-5.69h6.2l-2.54-4.58h3.73l-2.02-2.88zm-16.94-10.2c-.6 0-1.34-.59-1.34-.81v-.59c.07-.67 2.39-1.18 2.76-1.11.07.07.15.07.15.59 0 .44-.45 1.92-1.57 1.92z" fill="#caa946"/><path d="m100.48 126.8s.9 1.63.97 1.7c.22.3.52.37.75.37.07.3.22.96.37 1.63l-.15.81.45.52c.15.59.22 1.03.3 1.18 0 .15.07.22.07.3 1.64-.81 6.2-1.63 8.66-1.63s7.02.81 8.66 1.63c.07-.15.07-.37.15-.59 0-.15.07-.44.22-.89l.45-.52-.15-.89c.15-.67.3-1.26.3-1.55.22 0 .52 0 .75-.37.07-.07.97-1.7.97-1.7l.67-1.18 1.05-1.92s-.45-.3-1.27-.3c-1.05 0-1.34 1.4-1.34 1.4s-.3-.59-.97-.59c-.75 0-1.12.52-1.12 1.26s.6 1.03.75 1.18c.37.44 0 .67-.37.52-.22-.07-2.39-.67-2.69-.67-.52-.07-.37-.37-.07-.37h.3c.52 0 .9-.44.9-.89 0-.89-.67-1.03-.67-1.03s.15-.22.15-.44c0-.52-.37-1.03-.97-1.03-.97 0-.9 1.11-.9 1.11l-.15-.07c-.3 0-.9.3-.9.96 0 .59.45.89.67.96.3.07.45.44 0 .44-.22 0-3.06-.3-3.28-.3-.45 0-.52-.74.15-.74s1.27-.59 1.27-1.33c0-1.4-1.27-1.48-1.27-1.48s.07-.3.07-.52c0-.89-.75-1.48-1.42-1.48s-1.42.59-1.42 1.48c0 .15.07.52.07.52s-1.27.07-1.27 1.48c0 .81.6 1.33 1.27 1.33s.6.74.15.74c-.22 0-3.14.22-3.28.3-.45-.07-.3-.37 0-.44.22-.07.67-.37.67-.96 0-.67-.6-.96-.9-.96-.07 0-.15.07-.15.07s0-1.11-.9-1.11c-.52 0-.97.52-.97 1.03 0 .22.15.44.15.44s-.67.15-.67 1.03c0 .44.37.89.9.89h.3c.3 0 .37.37-.07.37-.3 0-2.46.59-2.69.67-.3.15-.67-.07-.37-.52.15-.15.75-.52.75-1.18 0-.74-.45-1.26-1.12-1.26-.6 0-.97.59-.97.59s-.3-1.4-1.27-1.4c-.82 0-1.27.3-1.27.3l1.04 1.92.67 1.18z" fill="#caa946"/><path d="m139.96 144.39c.97 0 1.94.22 2.54 1.03.67 3.84 4.26 5.47 4.26 5.47l.9-.89s1.04 1.11 3.88 1.11c0-3.11-1.79-4.81-2.91-5.69-1.34-1.18-3.06-2.44-4.03-2.88-1.34-.81-2.84-.96-3.96-.96-3.73 0-5.67 2.44-5.67 5.1 0 3.18 2.91 4.88 4.03 5.99 3.21 2.96 3.73 3.77 3.73 5.25 0 1.33-.67 2.07-1.49 2.07h-17.09l2.46 4.58h-7.17v7.54l-6.05-4.44-5.08 5.55s-.97 11.68-.97 11.9c0 .81-.52 1.18-1.12 1.18h-2.91s-1.04 1.92-1.04 2c-.3.67-.3 2.29-.3 2.29h8.66s6.57-11.9 7.39-12.79c.97-1.04 1.42-1.4 1.42-1.4s3.51-2.66 8.29-2.66c2.46 0 5.37.59 7.61 1.92 1.64.96 2.54 1.85 3.36 2.96 1.57 2 2.16 5.03 2.31 7.54h-1.87c-.97 0-2.02.59-2.16 1.4-.07.3-.82 3.03-.82 3.03h9.48l1.94-4.44-1.79-9.83s-5.15-5.18-5.15-9.76v-.37c4.4-.74 5.67-3.77 5.67-6.88 0-2.88-.45-4.66-3.43-7.69-1.49-1.55-5-3.11-5-5.03.07-.74.6-2.22 2.09-2.22z" fill="#caa946"/><path d="m107.34 173.45v-5.55h-8.29c-1.34 0-2.76 1.04-2.99 1.92-.15.52-2.02 5.69-2.02 5.69s-.22 1.11-.22 1.4c0 4.29 3.73 4.66 3.73 4.66s1.64-5.4 1.64-5.47c.37-.81 1.34-1.63 2.09-1.63h5.08c.75 0 .97-.3.97-1.04z" fill="#caa946"/><path d="m125.86 175.67.9 2.81s.15.3.15.89c0 1.63-1.34 5.4-2.09 6.73h-4.25c-.82 0-1.87 2.37-1.87 4.44h8.88l7.39-8.35s.82-3.84.82-3.92c-1.34-1.33-5.3-2.96-9.93-2.59z" fill="#caa946"/></svg>