<svg height="376.559258" viewBox="0 0 3672.2 5204.5" width="265.562452" xmlns="http://www.w3.org/2000/svg" xmlns:xlink="http://www.w3.org/1999/xlink"><clipPath id="a"><path d="m624.04 3448.11c0-625.18 542.92-1132.36 1212.34-1132.36s1211.77 507.18 1211.77 1132.36-542.92 1131.78-1211.77 1131.78-1212.34-506.61-1212.34-1131.78z"/></clipPath><path d="m0 3448.68c0-969.53 822.03-1755.82 1836.38-1755.82s1835.81 786.29 1835.81 1755.82-822.03 1755.82-1835.81 1755.82c-1014.35 0-1836.38-786.29-1836.38-1755.82z" fill="#e01217" fill-rule="evenodd"/><path d="m0 3448.68c0-969.53 822.03-1755.82 1836.38-1755.82s1835.81 786.29 1835.81 1755.82-822.03 1755.82-1835.81 1755.82c-1014.35 0-1836.38-786.29-1836.38-1755.82z" fill="none"/><path d="m220.68 3450.38c0-34.04 34.04-60.7 76.59-60.7s76.02 27.23 76.02 60.7-34.61 60.7-76.02 60.7-76.59-27.23-76.59-60.7z" fill="#f5d00d" fill-rule="evenodd"/><path d="m220.68 3450.38c0-34.04 34.04-60.7 76.59-60.7s76.02 27.23 76.02 60.7-34.61 60.7-76.02 60.7-76.59-27.23-76.59-60.7z" fill="none"/><path d="m3269.41 3450.38c0-34.04 34.04-60.7 76.02-60.7s76.02 27.23 76.02 60.7-33.47 60.7-76.02 60.7-76.02-27.23-76.02-60.7z" fill="#f5d00d" fill-rule="evenodd"/><path d="m3269.41 3450.38c0-34.04 34.04-60.7 76.02-60.7s76.02 27.23 76.02 60.7-33.47 60.7-76.02 60.7-76.02-27.23-76.02-60.7z" fill="none"/><g fill-rule="evenodd"><path d="m675.67 2681.67-72.62 14.75c13.05 25.53 11.35 51.06-3.97 75.45-26.1 39.14-79.99 27.8-120.84 5.67-40.85-22.69-78.29-62.4-59.57-105.52 11.35-26.1 29.5-40.85 56.73-45.95l-20.99-66.38c-46.52 10.21-76.02 34.61-99.28 77.15-40.28 72.62 7.94 168.49 84.53 211.04 76.59 41.98 180.97 36.31 224.09-40.28 22.69-43.12 27.8-79.99 11.91-125.94z" fill="#f5d00d"/><path d="m844.16 2315.19c-64.11-57.87-163.95-59.57-224.09 2.27l-77.15 79.99 237.7 229.19 77.15-79.99c61.84-64.11 52.76-170.76-13.62-231.46zm-56.17 58.43c35.17 31.2 49.36 88.5 16.45 122.54l-22.69 23.26-131.05-127.08 22.13-22.69c31.2-32.34 82.26-26.1 115.16 3.97z" fill="#f5d00d"/><path d="m2658.98 2416.17 174.73-280.25-66.94-41.98-99.28 158.85 2.84-218.42-66.95-42.55-174.73 279.69 67.51 41.98 98.72-158.28-3.41 218.98z" fill="#f5d00d"/><path d="m2353.2 2237.47-36.88-342.09-65.24-16.45-192.89 284.79 72.62 36.88 35.74-59.57 101.55 25.53 3.4 69.21 81.69 1.7zm-89.07-148.64-57.3-14.18 52.19-87.93 5.11 102.12z" fill="#f5d00d"/><path d="m2008.84 1949.84c0-70.35-67.51-118.57-137.86-118.57h-91.9v330.17h79.42v-93.61h12.48c70.35 0 137.86-47.65 137.86-118zm-79.99 0c0 28.37-30.07 44.25-57.87 44.25h-12.48v-89.07h12.48c27.8 0 57.87 16.45 57.87 44.82z" fill="#f5d00d"/><path d="m1652.57 2073.52c-9.64-48.79-48.22-70.91-97.01-84.53l-23.26-6.24c-24.39-6.81-44.82-10.21-43.12-30.07.57-12.48 9.08-23.26 20.42-26.1 18.15-4.54 36.88-5.67 49.36 7.38l35.74-62.4c-30.63-22.13-61.84-25.53-100.41-17.02-48.22 10.21-92.47 60.7-82.83 113.46 10.21 53.89 57.3 70.91 110.06 86.8l19.29 6.24c16.45 5.11 31.2 10.78 34.61 27.8 2.84 16.45-7.38 32.9-22.69 37.44-22.13 7.38-48.22 1.7-57.87-19.29l-38.01 64.67c31.77 30.07 76.02 34.04 111.76 26.66 56.73-10.78 95.31-67.51 83.96-124.81z" fill="#f5d00d"/><path d="m1354.17 2239.74-29.5-66.94-107.79 47.65-26.1-57.3 87.94-38.57-29.5-67.51-87.94 39.14-19.29-42.55 103.26-45.95-30.07-66.94-175.3 78.29 134.45 301.24z" fill="#f5d00d"/><path d="m3151.97 2458.72-34.6-73.75-153.18 44.25 55.03-149.77-71.48-39.71-64.67 210.47-91.91 85.1 55.03 59 91.34-85.67z" fill="#f5d00d"/><path d="m3253.52 2876.26c77.15-44.25 124.24-137.86 79.99-214.44-44.82-77.15-149.2-83.39-225.79-38.58-76.59 44.25-123.67 137.86-79.42 214.44 44.82 77.15 149.2 83.39 225.22 38.58zm-39.71-69.21c-47.09 27.23-98.71 35.74-122.54-5.67s9.08-81.13 56.73-108.92c47.65-27.8 98.71-35.17 122.54 5.67 23.83 40.85-9.08 81.13-56.73 108.92z" fill="#f5d00d"/><path d="m3188.28 3245.58 71.48-18.15-28.36-112.33 248.48-61.84-18.72-76.59-320.53 79.43z" fill="#f5d00d"/><path d="m412.43 3958.12c82.83-23.26 137.29-107.22 116.87-190.62l-27.23-107.79-320.53 79.42 26.66 107.79c22.13 87.37 118 136.15 204.23 111.19zm-19.28-77.72c-45.38 13.05-100.98-5.11-112.89-51.06l-7.37-31.2 177-44.25 7.94 31.2c10.21 43.12-21.56 82.83-64.67 95.31z" fill="#f5d00d"/><path d="m428.32 4332.55 64.67-35.75-57.86-103.25 55.03-30.63 47.08 84.53 64.11-35.74-46.52-83.96 40.85-22.7 53.89 98.72 64.67-36.31-92.47-167.36-289.33 159.98z" fill="#f5d00d"/><path d="m932.09 4691.08c23.26-30.07 19.86-67.51-.57-99.85 31.77 7.37 61.84-.57 81.69-26.1 35.74-45.38 2.84-103.25-47.09-142.39l-70.35-54.46-203.1 259.83 77.15 59.57c53.33 41.98 123.67 53.33 162.25 3.4zm8.51-162.25c-10.21 13.62-24.96 12.48-49.36-6.24l-9.64-7.37 31.77-40.85 8.51 6.81c24.39 19.29 28.37 35.17 18.72 47.65zm-66.38 107.23c-14.18 18.15-36.88 10.78-64.11-9.64l-9.64-7.94 38.01-49.36 10.21 7.94c28.93 21.56 39.71 40.85 25.53 59z" fill="#f5d00d"/><path d="m1287.23 4963.39 23.26-343.22-61.27-27.23-239.4 246.78 65.24 48.22 45.38-52.19 95.31 42.55-8.51 69.21 79.99 15.89zm-61.84-161.68-53.89-24.39 66.94-77.15-13.05 101.55z" fill="#f5d00d"/><path d="m1697.39 5024.1-70.91-118.57c38.01-13.62 62.97-44.82 69.21-80.56 10.21-65.24-45.95-119.13-111.76-129.91l-90.77-14.18-51.63 326.2 78.29 12.48 17.02-107.79 12.48 1.7 73.18 133.32 74.88-22.69zm-81.12-211.04c-3.4 22.69-31.2 31.77-54.46 28.37l-12.48-1.7 11.35-72.62 12.48 1.7c36.31 5.11 47.09 20.42 43.12 44.25z" fill="#f5d00d"/><path d="m2081.46 4996.86-51.63-52.76c-13.62 24.96-36.31 37.44-64.67 37.44-46.52 0-67.51-52.76-70.91-99.28s9.64-99.28 56.16-107.22c27.8-5.11 49.92 2.27 69.21 22.69l44.25-53.89c-34.61-34.04-70.35-44.82-119.13-41.41-82.83 5.67-136.72 98.14-131.05 184.94 6.24 87.37 68.08 171.89 155.44 166.22 48.79-2.84 82.83-19.29 112.33-56.73z" fill="#f5d00d"/><path d="m2436.6 4944.67-21.56-70.91-112.9 34.6-18.72-59.56 92.47-28.37-21.55-70.34-92.48 28.36-13.04-44.25 107.78-32.9-22.12-70.35-183.24 55.6 96.44 315.99z" fill="#f5d00d"/><path d="m2984.62 4384.17c-61.84-63.54-163.95-86.23-227.49-24.39-63.54 61.27-44.82 164.52 17.02 228.06s163.95 86.8 227.49 24.96c64.11-61.27 44.82-164.52-17.02-228.63zm-57.87 56.73c38.01 39.14 58.43 87.37 24.39 119.7-34.04 33.47-81.13 11.35-119.13-28.37-38.58-39.14-59-87.37-24.96-119.7 34.61-33.47 81.13-11.91 119.7 28.37z" fill="#f5d00d"/><path d="m2784.36 4771.08-35.18-64.11-100.98 56.16-124.24-224.65-69.78 38.58 161.12 288.19z" fill="#f5d00d"/><path d="m3491.79 3669.93-340.95 48.22-14.18 65.24 291.6 182.67 33.47-73.75-60.7-33.47 21.56-102.68 69.78-5.67-.57-80.56zm-145.8 93.6-12.48 58.43-89.64-49.92" fill="#f5d00d"/><path d="m3367.55 4113.56-289.33-159.98-38.01 69.21 163.39 90.77-217.85 7.95-39.14 69.21 288.76 159.98 38.57-69.21-163.95-90.2 218.98-8.51z" fill="#f5d00d"/><path d="m521.36 2968.17-122.54 62.4c-11.35-38.58-40.28-66.38-75.45-74.88-64.67-14.75-121.97 38.01-136.72 101.55l-20.99 89.64 321.66 74.32 17.59-77.15-106.09-24.39 2.27-11.91 137.86-64.11-17.59-75.45zm-216.15 66.37c23.26 5.11 30.07 33.47 24.96 56.73l-2.84 11.91-71.48-16.45 2.84-12.48c7.37-35.74 23.83-44.82 46.52-39.71z" fill="#f5d00d"/></g><path d="m624.04 3448.11c0-625.18 542.92-1132.35 1212.34-1132.35s1211.77 507.17 1211.77 1132.35-542.92 1131.78-1211.77 1131.78-1212.34-506.61-1212.34-1131.78z" fill="#fff"/><g clip-path="url(#a)" fill="#0085cc"><path d="m3200.19 2748.62 326.78 326.77-2085.44 2085.43-326.77-326.77z"/><path d="m2715.14 2244.28 326.21 326.77-2085.43 2085.43-326.21-327.34z"/><path d="m2349.8 1619.1 326.2 326.77-2084.86 2084.87-326.21-326.21z"/></g><path d="m624.04 3448.11c0-625.18 542.92-1132.35 1212.34-1132.35s1211.77 507.17 1211.77 1132.35-542.92 1131.78-1211.77 1131.78-1212.34-506.61-1212.34-1131.78z" fill="none"/><path d="m2932.42 906.56c-3.4-45.38-18.72-81.69-31.2-116.87-13.05-34.61-31.77-58.43-51.06-85.1-52.19-72.62-131.05-124.81-234.3-142.39-44.82-7.94-102.68-6.24-144.1 3.4-10.78 2.27-61.27 21.56-65.81 20.42-2.27-.57-18.15-22.69-20.42-25.53-14.18-17.59-37.44-38.01-55.03-51.06-55.6-43.12-149.77-81.13-251.89-72.62-31.77 2.84-59.57 11.35-88.5 15.32.57-10.21 1.7-20.99 2.27-32.34v-5.11c0-3.97-.57-7.94-.57-11.35-.57-1.13-.57-2.27-.57-3.97 0-1.13 0-2.84-.57-4.54 0-1.13-.57-2.27-.57-3.4-1.13-6.81-2.84-13.05-4.54-19.29-.57-1.13-1.13-2.84-1.13-3.97-1.7-5.67-3.97-11.35-6.81-16.45-1.13-2.84-2.27-5.11-3.4-7.38-2.84-5.11-6.24-10.21-9.08-15.32-1.13-1.7-2.27-3.4-3.97-5.11-2.84-3.97-6.24-7.94-9.64-11.91-1.13-1.7-1.7-2.84-2.84-3.97-15.32-15.88-32.9-28.37-53.33-36.88-5.11-2.27-10.21-3.97-15.88-5.67v-87.37h89.07v-89.07h-89.07v-89.03h-88.5v89.07h-88.5v88.5h88.5v87.93c-.57.57-1.7.57-2.27 1.13-13.05 3.97-24.96 9.64-36.31 16.45-1.7.57-3.4 1.7-4.54 2.84-6.81 4.54-13.05 9.64-19.86 15.88-20.42 19.29-36.31 44.25-44.25 72.05-7.94 24.96-10.21 52.76-3.4 81.69-34.61-5.67-68.64-14.75-108.92-14.75-98.14 0-180.4 34.04-235.43 81.69-24.39 20.42-43.12 47.09-66.38 68.64l-.57 2.27c-4.54 1.13-14.18-5.67-18.15-7.38-17.59-6.24-36.88-13.05-56.16-15.88-20.42-2.84-39.14-3.4-58.43-6.24.57 0-.57 0-1.7 0-23.26-2.84-48.22 1.7-68.08 5.11-7.94 1.7-15.88 2.27-23.26 3.4-144.1 32.9-256.99 147.5-287.06 301.81-6.24 29.5-8.51 66.38-6.24 102.12 11.35 161.12 64.11 268.9 122.54 377.83 26.1 48.22 56.16 107.79 100.98 135.02-6.81 10.21-15.32 19.86-19.86 31.77-11.91 26.66-11.35 63.54-2.27 91.34 34.61 102.68 195.72 128.78 293.87 70.35 43.68-25.53 67.51-55.6 73.75-119.14 81.69 82.83 258.13 79.42 323.37-17.59 7.94-11.91 13.05-26.66 18.72-42.55 10.78 16.45 21.56 33.47 36.31 45.95 70.91 59 208.2 58.43 279.68 0 15.32-12.48 25.53-30.07 36.88-46.52 35.74 102.68 166.22 143.53 281.95 97.58 23.83-9.64 43.12-26.66 62.4-41.98 0 100.98 107.22 159.98 213.31 149.77 51.63-5.11 95.31-26.1 125.94-53.89 31.2-28.37 52.76-78.86 32.9-134.45-5.11-14.75-15.88-24.39-22.13-38.01 32.34-20.42 43.68-42.55 64.67-74.32 44.25-66.94 83.96-144.66 113.46-226.92 27.23-75.45 53.33-165.09 45.95-274.01zm-1588.46 466.9c-11.35 8.51-20.42 17.59-28.93 28.37-17.02 20.42-29.5 44.25-29.5 81.69-24.96-18.72-47.65-39.71-80.56-48.79-18.15-5.67-36.88-7.94-61.27-11.91 5.67-53.33-19.29-80.56-39.14-109.49-14.75-20.99-30.63-41.98-43.12-64.67-18.72-34.04-39.14-69.21-52.76-107.79-25.53-71.48-57.87-207.07-12.48-280.25 24.96-41.98 65.24-69.78 125.38-73.75 20.99-1.13 51.63 2.84 71.48 9.08-5.67 40.85-3.4 85.66 1.7 124.81 15.32 128.21 53.89 230.33 97.58 328.47 14.18 32.9 27.23 71.48 49.36 97.01 5.67 6.24 11.91 12.48 17.59 17.59-6.24 2.84-10.21 6.24-15.32 9.64zm312.58 38.01c-1.13 3.97-2.27 7.37-3.4 12.48-6.81-6.24-10.21-14.18-15.88-21.56-22.69-30.07-61.84-53.33-103.25-61.84 15.32-63.54-3.97-91.9-23.83-136.72-13.05-28.37-27.8-57.87-38.58-87.93-63.54-171.33-131.62-430.59 115.73-450.44 56.16-4.54 100.98 17.59 140.13 32.9 3.97 41.41 1.13 89.63 1.13 132.75v301.81c0 43.68-5.67 102.12 1.7 141.83 3.4 18.72 11.91 33.47 20.42 46.52-40.85 20.42-79.99 44.25-94.17 90.2zm543.49-288.76c-11.35 26.1-22.69 52.19-34.61 78.29-11.35 26.66-28.93 50.49-31.2 87.37-1.13 18.72 4.54 32.9 6.81 47.65-50.49 14.18-93.61 39.71-115.73 83.96-25.53-56.73-46.52-74.32-99.28-101.55 9.64-14.18 17.59-31.77 20.99-53.33 2.84-17.59 1.13-38.01 1.13-57.87v-513.42c34.04-16.45 72.62-30.63 117.43-34.04 61.84-4.54 108.36 13.62 140.13 41.41 18.72 15.88 34.61 32.9 44.25 58.43 42.55 105.52-17.02 284.79-49.92 363.08zm506.6-128.78c-3.4 39.71-12.48 77.15-23.83 110.63-1.13 3.4-2.27 6.24-3.4 9.08-1.13 4.54-2.84 7.94-3.4 11.35-2.27 5.11-2.84 9.08-4.54 13.62s-3.97 8.51-6.24 13.05c-1.7 5.67-3.4 9.64-5.67 15.32-2.27 5.11-5.11 10.21-6.81 16.45-2.84 5.67-6.24 11.35-9.08 17.59-3.4 6.24-6.81 12.48-10.21 18.72-3.97 7.37-7.94 14.75-11.91 22.13-11.91 20.99-26.1 41.41-40.28 60.7-23.26 31.77-46.52 58.43-44.25 116.3-44.25 0-85.66 15.88-113.46 35.17-9.64 6.24-17.02 17.59-26.1 23.83-.57.57-2.27 1.13-3.4 1.13 0 0-.57-2.84-.57-3.97 0 0 1.13-2.27.57-2.84-.57-6.24-1.7-14.75-3.4-20.99-5.67-26.1-17.59-44.25-32.34-60.13-7.94-7.94-15.88-15.32-24.96-22.13-18.72-14.18-14.18-8.51 0-22.69 24.96-24.96 39.71-71.48 56.16-106.09 43.12-93.04 79.42-194.59 94.74-316.56 5.11-40.28 8.51-89.07 2.27-132.18 16.45-5.11 35.74-7.37 55.6-9.08 61.84-5.11 107.79 24.96 135.02 59 4.54 6.81 11.35 13.05 15.32 20.99 16.45 32.34 17.59 68.64 15.88 111.76 0-1.13-1.7 17.02-1.7 19.86z" fill="#f5d00d" fill-rule="evenodd"/><path d="m1121.57 787.43c-60.13 3.97-100.41 32.34-125.38 73.75-45.95 73.75-13.62 208.77 12.48 280.25 13.62 38.58 34.04 73.75 52.76 107.79 12.48 22.13 28.37 43.68 43.12 64.67 19.86 28.93 44.82 56.16 39.14 109.49 24.39 3.97 43.12 5.67 61.27 11.91 33.47 9.08 55.6 30.63 80.56 48.79 0-37.44 12.48-61.27 29.5-81.69 8.51-11.35 17.59-20.42 28.93-28.37 5.11-3.4 9.64-6.81 15.32-10.21-5.67-4.54-11.91-11.35-17.59-17.59-22.13-25.53-35.17-64.11-49.36-97.01-43.68-98.14-81.69-199.69-97.58-328.47-5.11-39.14-7.38-83.39-1.7-124.81-20.42-6.24-50.49-10.21-71.48-8.51z" fill="#e01217" fill-rule="evenodd"/><path d="m2066.71 660.92c-45.38 3.4-83.96 17.59-117.43 34.04v513.42c0 19.86 1.13 40.28-1.13 57.87-3.4 20.99-11.91 39.14-20.99 53.33 52.76 26.66 73.75 44.82 99.28 101.55 21.56-44.25 64.67-69.78 115.73-83.96-2.27-14.75-7.94-28.93-6.81-47.65 2.27-36.88 19.86-60.7 31.2-87.37 11.35-26.1 23.26-52.19 34.61-78.29 32.9-78.29 92.47-257.56 51.06-361.94-10.21-25.53-26.1-42.55-44.25-58.43-32.9-28.93-79.42-47.65-141.26-42.55z" fill="#e01217" fill-rule="evenodd"/><path d="m1586.2 665.45c-247.35 19.86-179.27 279.12-115.73 450.44 10.78 30.07 25.53 59.57 38.58 87.93 19.86 44.82 39.71 73.18 23.83 136.72 41.98 8.51 81.13 31.77 103.25 61.84 5.67 7.94 9.08 15.32 15.88 21.56 1.13-5.11 2.27-8.51 3.4-12.48 14.75-45.38 53.33-69.78 93.04-89.63-8.51-13.62-17.02-28.37-20.42-46.52-7.38-39.71-1.7-98.14-1.7-141.83v-301.81c0-43.12 3.4-91.34-1.13-132.75-37.44-16.45-82.83-38.01-138.99-33.47z" fill="#e01217" fill-rule="evenodd"/><path d="m2540.98 781.19c-19.86 1.7-39.14 3.97-55.6 9.08 6.24 43.12 2.84 91.9-2.27 132.18-15.32 121.97-51.63 223.52-94.74 316.56-17.02 34.61-31.2 81.69-56.16 106.09-14.18 14.18-18.72 9.08 0 22.69 9.64 6.81 17.02 14.18 24.96 22.13 15.32 15.88 26.66 34.04 32.34 60.13 1.13 6.24 2.27 14.75 3.4 20.99.57.57-.57 3.97-.57 3.97l.57 2.84c1.13 0 3.4-.57 3.4-1.13 9.08-6.24 16.45-17.02 26.1-23.83 27.8-19.29 69.21-35.17 113.46-35.17-2.27-57.87 20.99-84.53 44.25-116.3 14.18-19.29 28.37-40.28 40.28-60.7 3.97-7.37 7.94-14.75 11.91-22.13 3.4-6.24 6.81-12.48 10.21-18.72 2.84-5.67 6.24-11.91 9.08-17.59 2.27-5.67 4.54-11.35 6.81-16.45 2.84-5.67 3.97-9.08 5.67-15.32 2.27-4.54 4.54-7.94 6.24-13.05 1.7-4.54 2.27-7.94 4.54-13.62.57-3.4 2.27-6.81 3.4-11.35 1.13-3.4 2.84-6.24 3.4-9.08 10.78-32.9 19.86-70.35 23.83-110.63 0-3.4 1.7-21.56.57-21.56 1.7-43.68.57-79.42-15.88-111.76-3.97-7.94-10.78-14.18-15.32-20.99-26.1-32.34-72.05-62.4-133.89-57.3z" fill="#e01217" fill-rule="evenodd"/></svg>